# Tiled2Unity generated file. Do not modify by hand.
# Wavefront file for 'Level1_mesh_0003.obj'

# Vertices (Count = 416)
v -15.36 -5.12 0
v -20.48 -5.12 0
v -20.48 0 0
v -15.36 0 0
v -20.48 -5.12 0
v -25.6 -5.12 0
v -25.6 0 0
v -20.48 0 0
v -25.6 -5.12 0
v -30.72 -5.12 0
v -30.72 0 0
v -25.6 0 0
v -81.92 -5.12 0
v -87.04 -5.12 0
v -87.04 0 0
v -81.92 0 0
v -87.04 -5.12 0
v -92.16 -5.12 0
v -92.16 0 0
v -87.04 0 0
v -92.16 -5.12 0
v -97.28 -5.12 0
v -97.28 0 0
v -92.16 0 0
v -97.28 -5.12 0
v -102.4 -5.12 0
v -102.4 0 0
v -97.28 0 0
v -15.36 -10.24 0
v -20.48 -10.24 0
v -20.48 -5.12 0
v -15.36 -5.12 0
v -20.48 -10.24 0
v -25.6 -10.24 0
v -25.6 -5.12 0
v -20.48 -5.12 0
v -25.6 -10.24 0
v -30.72 -10.24 0
v -30.72 -5.12 0
v -25.6 -5.12 0
v -30.72 -10.24 0
v -35.84 -10.24 0
v -35.84 -5.12 0
v -30.72 -5.12 0
v -35.84 -10.24 0
v -40.96 -10.24 0
v -40.96 -5.12 0
v -35.84 -5.12 0
v -40.96 -10.24 0
v -46.08 -10.24 0
v -46.08 -5.12 0
v -40.96 -5.12 0
v -46.08 -10.24 0
v -51.2 -10.24 0
v -51.2 -5.12 0
v -46.08 -5.12 0
v -51.2 -10.24 0
v -56.32 -10.24 0
v -56.32 -5.12 0
v -51.2 -5.12 0
v -56.32 -10.24 0
v -61.44 -10.24 0
v -61.44 -5.12 0
v -56.32 -5.12 0
v -61.44 -10.24 0
v -66.56 -10.24 0
v -66.56 -5.12 0
v -61.44 -5.12 0
v -66.56 -10.24 0
v -71.68 -10.24 0
v -71.68 -5.12 0
v -66.56 -5.12 0
v -71.68 -10.24 0
v -76.8 -10.24 0
v -76.8 -5.12 0
v -71.68 -5.12 0
v -76.8 -10.24 0
v -81.92 -10.24 0
v -81.92 -5.12 0
v -76.8 -5.12 0
v -81.92 -10.24 0
v -87.04 -10.24 0
v -87.04 -5.12 0
v -81.92 -5.12 0
v -87.04 -10.24 0
v -92.16 -10.24 0
v -92.16 -5.12 0
v -87.04 -5.12 0
v -92.16 -10.24 0
v -97.28 -10.24 0
v -97.28 -5.12 0
v -92.16 -5.12 0
v -97.28 -10.24 0
v -102.4 -10.24 0
v -102.4 -5.12 0
v -97.28 -5.12 0
v -15.36 -15.36 0
v -20.48 -15.36 0
v -20.48 -10.24 0
v -15.36 -10.24 0
v -20.48 -15.36 0
v -25.6 -15.36 0
v -25.6 -10.24 0
v -20.48 -10.24 0
v -25.6 -15.36 0
v -30.72 -15.36 0
v -30.72 -10.24 0
v -25.6 -10.24 0
v -30.72 -15.36 0
v -35.84 -15.36 0
v -35.84 -10.24 0
v -30.72 -10.24 0
v -35.84 -15.36 0
v -40.96 -15.36 0
v -40.96 -10.24 0
v -35.84 -10.24 0
v -40.96 -15.36 0
v -46.08 -15.36 0
v -46.08 -10.24 0
v -40.96 -10.24 0
v -46.08 -15.36 0
v -51.2 -15.36 0
v -51.2 -10.24 0
v -46.08 -10.24 0
v -51.2 -15.36 0
v -56.32 -15.36 0
v -56.32 -10.24 0
v -51.2 -10.24 0
v -56.32 -15.36 0
v -61.44 -15.36 0
v -61.44 -10.24 0
v -56.32 -10.24 0
v -61.44 -15.36 0
v -66.56 -15.36 0
v -66.56 -10.24 0
v -61.44 -10.24 0
v -66.56 -15.36 0
v -71.68 -15.36 0
v -71.68 -10.24 0
v -66.56 -10.24 0
v -71.68 -15.36 0
v -76.8 -15.36 0
v -76.8 -10.24 0
v -71.68 -10.24 0
v -76.8 -15.36 0
v -81.92 -15.36 0
v -81.92 -10.24 0
v -76.8 -10.24 0
v -81.92 -15.36 0
v -87.04 -15.36 0
v -87.04 -10.24 0
v -81.92 -10.24 0
v -87.04 -15.36 0
v -92.16 -15.36 0
v -92.16 -10.24 0
v -87.04 -10.24 0
v -92.16 -15.36 0
v -97.28 -15.36 0
v -97.28 -10.24 0
v -92.16 -10.24 0
v -97.28 -15.36 0
v -102.4 -15.36 0
v -102.4 -10.24 0
v -97.28 -10.24 0
v -15.36 -20.48 0
v -20.48 -20.48 0
v -20.48 -15.36 0
v -15.36 -15.36 0
v -20.48 -20.48 0
v -25.6 -20.48 0
v -25.6 -15.36 0
v -20.48 -15.36 0
v -25.6 -20.48 0
v -30.72 -20.48 0
v -30.72 -15.36 0
v -25.6 -15.36 0
v -81.92 -20.48 0
v -87.04 -20.48 0
v -87.04 -15.36 0
v -81.92 -15.36 0
v -87.04 -20.48 0
v -92.16 -20.48 0
v -92.16 -15.36 0
v -87.04 -15.36 0
v -92.16 -20.48 0
v -97.28 -20.48 0
v -97.28 -15.36 0
v -92.16 -15.36 0
v -97.28 -20.48 0
v -102.4 -20.48 0
v -102.4 -15.36 0
v -97.28 -15.36 0
v -15.36 -25.6 0
v -20.48 -25.6 0
v -20.48 -20.48 0
v -15.36 -20.48 0
v -20.48 -25.6 0
v -25.6 -25.6 0
v -25.6 -20.48 0
v -20.48 -20.48 0
v -87.04 -25.6 0
v -92.16 -25.6 0
v -92.16 -20.48 0
v -87.04 -20.48 0
v -92.16 -25.6 0
v -97.28 -25.6 0
v -97.28 -20.48 0
v -92.16 -20.48 0
v -97.28 -25.6 0
v -102.4 -25.6 0
v -102.4 -20.48 0
v -97.28 -20.48 0
v -15.36 -30.72 0
v -20.48 -30.72 0
v -20.48 -25.6 0
v -15.36 -25.6 0
v -20.48 -30.72 0
v -25.6 -30.72 0
v -25.6 -25.6 0
v -20.48 -25.6 0
v -87.04 -30.72 0
v -92.16 -30.72 0
v -92.16 -25.6 0
v -87.04 -25.6 0
v -92.16 -30.72 0
v -97.28 -30.72 0
v -97.28 -25.6 0
v -92.16 -25.6 0
v -97.28 -30.72 0
v -102.4 -30.72 0
v -102.4 -25.6 0
v -97.28 -25.6 0
v -15.36 -35.84 0
v -20.48 -35.84 0
v -20.48 -30.72 0
v -15.36 -30.72 0
v -20.48 -35.84 0
v -25.6 -35.84 0
v -25.6 -30.72 0
v -20.48 -30.72 0
v -87.04 -35.84 0
v -92.16 -35.84 0
v -92.16 -30.72 0
v -87.04 -30.72 0
v -92.16 -35.84 0
v -97.28 -35.84 0
v -97.28 -30.72 0
v -92.16 -30.72 0
v -97.28 -35.84 0
v -102.4 -35.84 0
v -102.4 -30.72 0
v -97.28 -30.72 0
v -15.36 -40.96 0
v -20.48 -40.96 0
v -20.48 -35.84 0
v -15.36 -35.84 0
v -20.48 -40.96 0
v -25.6 -40.96 0
v -25.6 -35.84 0
v -20.48 -35.84 0
v -15.36 -46.08 0
v -20.48 -46.08 0
v -20.48 -40.96 0
v -15.36 -40.96 0
v -20.48 -46.08 0
v -25.6 -46.08 0
v -25.6 -40.96 0
v -20.48 -40.96 0
v -25.6 -46.08 0
v -30.72 -46.08 0
v -30.72 -40.96 0
v -25.6 -40.96 0
v -15.36 -51.2 0
v -20.48 -51.2 0
v -20.48 -46.08 0
v -15.36 -46.08 0
v -20.48 -51.2 0
v -25.6 -51.2 0
v -25.6 -46.08 0
v -20.48 -46.08 0
v -25.6 -51.2 0
v -30.72 -51.2 0
v -30.72 -46.08 0
v -25.6 -46.08 0
v -30.72 -51.2 0
v -35.84 -51.2 0
v -35.84 -46.08 0
v -30.72 -46.08 0
v -35.84 -51.2 0
v -40.96 -51.2 0
v -40.96 -46.08 0
v -35.84 -46.08 0
v -92.16 -51.2 0
v -97.28 -51.2 0
v -97.28 -46.08 0
v -92.16 -46.08 0
v -97.28 -51.2 0
v -102.4 -51.2 0
v -102.4 -46.08 0
v -97.28 -46.08 0
v -15.36 -56.32 0
v -20.48 -56.32 0
v -20.48 -51.2 0
v -15.36 -51.2 0
v -20.48 -56.32 0
v -25.6 -56.32 0
v -25.6 -51.2 0
v -20.48 -51.2 0
v -25.6 -56.32 0
v -30.72 -56.32 0
v -30.72 -51.2 0
v -25.6 -51.2 0
v -30.72 -56.32 0
v -35.84 -56.32 0
v -35.84 -51.2 0
v -30.72 -51.2 0
v -35.84 -56.32 0
v -40.96 -56.32 0
v -40.96 -51.2 0
v -35.84 -51.2 0
v -92.16 -56.32 0
v -97.28 -56.32 0
v -97.28 -51.2 0
v -92.16 -51.2 0
v -97.28 -56.32 0
v -102.4 -56.32 0
v -102.4 -51.2 0
v -97.28 -51.2 0
v -92.16 -61.44 0
v -97.28 -61.44 0
v -97.28 -56.32 0
v -92.16 -56.32 0
v -97.28 -61.44 0
v -102.4 -61.44 0
v -102.4 -56.32 0
v -97.28 -56.32 0
v -92.16 -66.56 0
v -97.28 -66.56 0
v -97.28 -61.44 0
v -92.16 -61.44 0
v -97.28 -66.56 0
v -102.4 -66.56 0
v -102.4 -61.44 0
v -97.28 -61.44 0
v -92.16 -71.68 0
v -97.28 -71.68 0
v -97.28 -66.56 0
v -92.16 -66.56 0
v -97.28 -71.68 0
v -102.4 -71.68 0
v -102.4 -66.56 0
v -97.28 -66.56 0
v -92.16 -76.8 0
v -97.28 -76.8 0
v -97.28 -71.68 0
v -92.16 -71.68 0
v -97.28 -76.8 0
v -102.4 -76.8 0
v -102.4 -71.68 0
v -97.28 -71.68 0
v -92.16 -81.92 0
v -97.28 -81.92 0
v -97.28 -76.8 0
v -92.16 -76.8 0
v -97.28 -81.92 0
v -102.4 -81.92 0
v -102.4 -76.8 0
v -97.28 -76.8 0
v -92.16 -87.04 0
v -97.28 -87.04 0
v -97.28 -81.92 0
v -92.16 -81.92 0
v -97.28 -87.04 0
v -102.4 -87.04 0
v -102.4 -81.92 0
v -97.28 -81.92 0
v -92.16 -92.16 0
v -97.28 -92.16 0
v -97.28 -87.04 0
v -92.16 -87.04 0
v -97.28 -92.16 0
v -102.4 -92.16 0
v -102.4 -87.04 0
v -97.28 -87.04 0
v -46.08 -97.28 0
v -51.2 -97.28 0
v -51.2 -92.16 0
v -46.08 -92.16 0
v -51.2 -97.28 0
v -56.32 -97.28 0
v -56.32 -92.16 0
v -51.2 -92.16 0
v -92.16 -97.28 0
v -97.28 -97.28 0
v -97.28 -92.16 0
v -92.16 -92.16 0
v -97.28 -97.28 0
v -102.4 -97.28 0
v -102.4 -92.16 0
v -97.28 -92.16 0
v -46.08 -102.4 0
v -51.2 -102.4 0
v -51.2 -97.28 0
v -46.08 -97.28 0
v -51.2 -102.4 0
v -56.32 -102.4 0
v -56.32 -97.28 0
v -51.2 -97.28 0
v -92.16 -102.4 0
v -97.28 -102.4 0
v -97.28 -97.28 0
v -92.16 -97.28 0
v -97.28 -102.4 0
v -102.4 -102.4 0
v -102.4 -97.28 0
v -97.28 -97.28 0

# Texture cooridinates (Count = 82)
vt 0.411812 0.375
vt 0.4706423 0.375
vt 0.4706423 0.5
vt 0.411812 0.5
vt 0.5294726 0.375
vt 0.5294726 0.5
vt 0.5883029 0.375
vt 0.5883029 0.5
vt 0.1176606 0.875
vt 0.1764909 0.875
vt 0.1764909 1
vt 0.1176606 1
vt 0.2353211 0.875
vt 0.2353211 1
vt 0.2941515 0.875
vt 0.2941515 1
vt 0.3529817 0.875
vt 0.3529817 1
vt 0.411812 0.25
vt 0.4706423 0.25
vt 0.5294726 0.25
vt 0 0.625
vt 0.05883029 0.625
vt 0.05883029 0.75
vt 0 0.75
vt 0.1176606 0.625
vt 0.1176606 0.75
vt 0.1764909 0.75
vt 0.2353211 0.75
vt 0.2941515 0.75
vt 0.3529817 0.75
vt 0.411812 0.125
vt 0.4706423 0.125
vt 0.5294726 0.125
vt 0 0.5
vt 0.05883029 0.5
vt 0.1176606 0.5
vt 0.1764909 0.625
vt 0.2353211 0.625
vt 0.2941515 0.625
vt 0.3529817 0.625
vt 0.411812 0
vt 0.4706423 0
vt 0.5294726 0
vt 0.5883029 0
vt 0.5883029 0.125
vt 0.1764909 0.5
vt 0.2353211 0.5
vt 0.2941515 0.5
vt 0.3529817 0.5
vt 0 0.875
vt 0.05883029 0.875
vt 0.05883029 1
vt 0 1
vt 0.7059634 0.875
vt 0.7647938 0.875
vt 0.7647938 1
vt 0.7059634 1
vt 0.823624 0.875
vt 0.823624 1
vt 0.8824543 0.875
vt 0.8824543 1
vt 0.7059634 0.75
vt 0.7647938 0.75
vt 0.823624 0.75
vt 0.8824543 0.75
vt 0.7059634 0.625
vt 0.7647938 0.625
vt 0.823624 0.625
vt 0.8824543 0.625
vt 0.823624 0.25
vt 0.8824543 0.25
vt 0.8824543 0.375
vt 0.823624 0.375
vt 0.9412846 0.25
vt 0.9412846 0.375
vt 0.823624 0.125
vt 0.8824543 0.125
vt 0.9412846 0.125
vt 0.823624 0
vt 0.8824543 0
vt 0.9412846 0

# Normal
vn 0 0 -1

# Mesh description
g Level1_mesh_0003

# Faces
f 1/1/1 2/2/1 3/3/1 4/4/1
f 5/2/1 6/5/1 7/6/1 8/3/1
f 9/5/1 10/7/1 11/8/1 12/6/1
f 13/9/1 14/10/1 15/11/1 16/12/1
f 17/10/1 18/13/1 19/14/1 20/11/1
f 21/13/1 22/15/1 23/16/1 24/14/1
f 25/15/1 26/17/1 27/18/1 28/16/1
f 29/19/1 30/20/1 31/2/1 32/1/1
f 33/20/1 34/21/1 35/5/1 36/2/1
f 37/22/1 38/23/1 39/24/1 40/25/1
f 41/23/1 42/26/1 43/27/1 44/24/1
f 45/22/1 46/23/1 47/24/1 48/25/1
f 49/23/1 50/26/1 51/27/1 52/24/1
f 53/22/1 54/23/1 55/24/1 56/25/1
f 57/23/1 58/26/1 59/27/1 60/24/1
f 61/22/1 62/23/1 63/24/1 64/25/1
f 65/23/1 66/26/1 67/27/1 68/24/1
f 69/22/1 70/23/1 71/24/1 72/25/1
f 73/22/1 74/23/1 75/24/1 76/25/1
f 77/23/1 78/26/1 79/27/1 80/24/1
f 81/27/1 82/28/1 83/10/1 84/9/1
f 85/28/1 86/29/1 87/13/1 88/10/1
f 89/29/1 90/30/1 91/15/1 92/13/1
f 93/30/1 94/31/1 95/17/1 96/15/1
f 97/32/1 98/33/1 99/20/1 100/19/1
f 101/33/1 102/34/1 103/21/1 104/20/1
f 105/35/1 106/36/1 107/23/1 108/22/1
f 109/36/1 110/37/1 111/26/1 112/23/1
f 113/35/1 114/36/1 115/23/1 116/22/1
f 117/36/1 118/37/1 119/26/1 120/23/1
f 121/35/1 122/36/1 123/23/1 124/22/1
f 125/36/1 126/37/1 127/26/1 128/23/1
f 129/35/1 130/36/1 131/23/1 132/22/1
f 133/36/1 134/37/1 135/26/1 136/23/1
f 137/35/1 138/36/1 139/23/1 140/22/1
f 141/35/1 142/36/1 143/23/1 144/22/1
f 145/36/1 146/37/1 147/26/1 148/23/1
f 149/26/1 150/38/1 151/28/1 152/27/1
f 153/38/1 154/39/1 155/29/1 156/28/1
f 157/39/1 158/40/1 159/30/1 160/29/1
f 161/40/1 162/41/1 163/31/1 164/30/1
f 165/42/1 166/43/1 167/33/1 168/32/1
f 169/43/1 170/44/1 171/34/1 172/33/1
f 173/44/1 174/45/1 175/46/1 176/34/1
f 177/37/1 178/47/1 179/38/1 180/26/1
f 181/47/1 182/48/1 183/39/1 184/38/1
f 185/48/1 186/49/1 187/40/1 188/39/1
f 189/49/1 190/50/1 191/41/1 192/40/1
f 193/51/1 194/52/1 195/53/1 196/54/1
f 197/52/1 198/9/1 199/12/1 200/53/1
f 201/55/1 202/56/1 203/57/1 204/58/1
f 205/56/1 206/59/1 207/60/1 208/57/1
f 209/59/1 210/61/1 211/62/1 212/60/1
f 213/25/1 214/24/1 215/52/1 216/51/1
f 217/24/1 218/27/1 219/9/1 220/52/1
f 221/63/1 222/64/1 223/56/1 224/55/1
f 225/64/1 226/65/1 227/59/1 228/56/1
f 229/65/1 230/66/1 231/61/1 232/59/1
f 233/25/1 234/24/1 235/52/1 236/51/1
f 237/24/1 238/27/1 239/9/1 240/52/1
f 241/67/1 242/68/1 243/64/1 244/63/1
f 245/68/1 246/69/1 247/65/1 248/64/1
f 249/69/1 250/70/1 251/66/1 252/65/1
f 253/51/1 254/52/1 255/53/1 256/54/1
f 257/52/1 258/9/1 259/12/1 260/53/1
f 261/25/1 262/24/1 263/52/1 264/51/1
f 265/24/1 266/27/1 267/9/1 268/52/1
f 269/59/1 270/61/1 271/62/1 272/60/1
f 273/63/1 274/64/1 275/56/1 276/55/1
f 277/64/1 278/65/1 279/59/1 280/56/1
f 281/65/1 282/66/1 283/61/1 284/59/1
f 285/22/1 286/23/1 287/24/1 288/25/1
f 289/23/1 290/26/1 291/27/1 292/24/1
f 293/71/1 294/72/1 295/73/1 296/74/1
f 297/72/1 298/75/1 299/76/1 300/73/1
f 301/67/1 302/68/1 303/64/1 304/63/1
f 305/68/1 306/69/1 307/65/1 308/64/1
f 309/69/1 310/70/1 311/66/1 312/65/1
f 313/35/1 314/36/1 315/23/1 316/22/1
f 317/36/1 318/37/1 319/26/1 320/23/1
f 321/77/1 322/78/1 323/72/1 324/71/1
f 325/78/1 326/79/1 327/75/1 328/72/1
f 329/80/1 330/81/1 331/78/1 332/77/1
f 333/81/1 334/82/1 335/79/1 336/78/1
f 337/51/1 338/52/1 339/53/1 340/54/1
f 341/52/1 342/9/1 343/12/1 344/53/1
f 345/25/1 346/24/1 347/52/1 348/51/1
f 349/24/1 350/27/1 351/9/1 352/52/1
f 353/25/1 354/24/1 355/52/1 356/51/1
f 357/24/1 358/27/1 359/9/1 360/52/1
f 361/51/1 362/52/1 363/53/1 364/54/1
f 365/52/1 366/9/1 367/12/1 368/53/1
f 369/25/1 370/24/1 371/52/1 372/51/1
f 373/24/1 374/27/1 375/9/1 376/52/1
f 377/51/1 378/52/1 379/53/1 380/54/1
f 381/52/1 382/9/1 383/12/1 384/53/1
f 385/51/1 386/52/1 387/53/1 388/54/1
f 389/52/1 390/9/1 391/12/1 392/53/1
f 393/51/1 394/52/1 395/53/1 396/54/1
f 397/52/1 398/9/1 399/12/1 400/53/1
f 401/25/1 402/24/1 403/52/1 404/51/1
f 405/24/1 406/27/1 407/9/1 408/52/1
f 409/25/1 410/24/1 411/52/1 412/51/1
f 413/24/1 414/27/1 415/9/1 416/52/1

