# Tiled2Unity generated file. Do not modify by hand.
# Wavefront file for 'Level1_mesh_0004.obj'

# Vertices (Count = 36)
v -40.96 -51.2 0
v -46.08 -51.2 0
v -46.08 -46.08 0
v -40.96 -46.08 0
v -46.08 -51.2 0
v -51.2 -51.2 0
v -51.2 -46.08 0
v -46.08 -46.08 0
v -51.2 -51.2 0
v -56.32 -51.2 0
v -56.32 -46.08 0
v -51.2 -46.08 0
v -40.96 -56.32 0
v -46.08 -56.32 0
v -46.08 -51.2 0
v -40.96 -51.2 0
v -46.08 -56.32 0
v -51.2 -56.32 0
v -51.2 -51.2 0
v -46.08 -51.2 0
v -51.2 -56.32 0
v -56.32 -56.32 0
v -56.32 -51.2 0
v -51.2 -51.2 0
v -40.96 -61.44 0
v -46.08 -61.44 0
v -46.08 -56.32 0
v -40.96 -56.32 0
v -46.08 -61.44 0
v -51.2 -61.44 0
v -51.2 -56.32 0
v -46.08 -56.32 0
v -51.2 -61.44 0
v -56.32 -61.44 0
v -56.32 -56.32 0
v -51.2 -56.32 0

# Texture cooridinates (Count = 16)
vt 0 0.5
vt 0.25 0.5
vt 0.25 0.75
vt 0 0.75
vt 0.5 0.5
vt 0.5 0.75
vt 0.75 0.5
vt 0.75 0.75
vt 0 0.25
vt 0.25 0.25
vt 0.5 0.25
vt 0.75 0.25
vt 0 0
vt 0.25 0
vt 0.5 0
vt 0.75 0

# Normal
vn 0 0 -1

# Mesh description
g Level1_mesh_0004

# Faces
f 1/1/1 2/2/1 3/3/1 4/4/1
f 5/2/1 6/5/1 7/6/1 8/3/1
f 9/5/1 10/7/1 11/8/1 12/6/1
f 13/9/1 14/10/1 15/2/1 16/1/1
f 17/10/1 18/11/1 19/5/1 20/2/1
f 21/11/1 22/12/1 23/7/1 24/5/1
f 25/13/1 26/14/1 27/10/1 28/9/1
f 29/14/1 30/15/1 31/11/1 32/10/1
f 33/15/1 34/16/1 35/12/1 36/11/1

