# Tiled2Unity generated file. Do not modify by hand.
# Wavefront file for 'Level1_mesh_0005.obj'

# Vertices (Count = 48)
v -46.08 -66.56 0
v -51.2 -66.56 0
v -51.2 -61.44 0
v -46.08 -61.44 0
v -51.2 -66.56 0
v -56.32 -66.56 0
v -56.32 -61.44 0
v -51.2 -61.44 0
v -46.08 -71.68 0
v -51.2 -71.68 0
v -51.2 -66.56 0
v -46.08 -66.56 0
v -51.2 -71.68 0
v -56.32 -71.68 0
v -56.32 -66.56 0
v -51.2 -66.56 0
v -46.08 -76.8 0
v -51.2 -76.8 0
v -51.2 -71.68 0
v -46.08 -71.68 0
v -51.2 -76.8 0
v -56.32 -76.8 0
v -56.32 -71.68 0
v -51.2 -71.68 0
v -46.08 -81.92 0
v -51.2 -81.92 0
v -51.2 -76.8 0
v -46.08 -76.8 0
v -51.2 -81.92 0
v -56.32 -81.92 0
v -56.32 -76.8 0
v -51.2 -76.8 0
v -46.08 -87.04 0
v -51.2 -87.04 0
v -51.2 -81.92 0
v -46.08 -81.92 0
v -51.2 -87.04 0
v -56.32 -87.04 0
v -56.32 -81.92 0
v -51.2 -81.92 0
v -46.08 -92.16 0
v -51.2 -92.16 0
v -51.2 -87.04 0
v -46.08 -87.04 0
v -51.2 -92.16 0
v -56.32 -92.16 0
v -56.32 -87.04 0
v -51.2 -87.04 0

# Texture cooridinates (Count = 9)
vt 0 0
vt 0.5 0
vt 0.5 0.5
vt 0 0.5
vt 1 0
vt 1 0.5
vt 0.5 1
vt 0 1
vt 1 1

# Normal
vn 0 0 -1

# Mesh description
g Level1_mesh_0005

# Faces
f 1/1/1 2/2/1 3/3/1 4/4/1
f 5/2/1 6/5/1 7/6/1 8/3/1
f 9/4/1 10/3/1 11/7/1 12/8/1
f 13/3/1 14/6/1 15/9/1 16/7/1
f 17/1/1 18/2/1 19/3/1 20/4/1
f 21/2/1 22/5/1 23/6/1 24/3/1
f 25/4/1 26/3/1 27/7/1 28/8/1
f 29/3/1 30/6/1 31/9/1 32/7/1
f 33/1/1 34/2/1 35/3/1 36/4/1
f 37/2/1 38/5/1 39/6/1 40/3/1
f 41/4/1 42/3/1 43/7/1 44/8/1
f 45/3/1 46/6/1 47/9/1 48/7/1

